<?xml version="1.0" encoding="UTF-8"?>
<svg xmlns="http://www.w3.org/2000/svg" width="1024.0" height="1024.000244140625" viewBox="196.32702636718543 11.544126921886864 1024.0 1024.000244140625" preserveAspectRatio="none">
  <g>
    <defs>
      <path id="s-Path_4-d1224" d="M196.32702636718545 523.5302539196341 C196.32702636718545 240.76382806121978 425.57438840058035 11.544126921886857 708.3408993694381 11.544126921886857 C991.1074103382957 11.544126921886857 1220.3270263671855 240.76382806121978 1220.3270263671855 523.5302539196341 C1220.3270263671855 806.2967648884919 991.1074103382957 1035.544254587552 708.3408993694381 1035.544254587552 C425.57438840058035 1035.544254587552 196.32702636718545 806.2967648884919 196.32702636718545 523.5302539196341 "></path>
      <filter filterUnits="userSpaceOnUse" x="191.32702636718543" y="6.544126921886864" width="1041.0710678118655" height="1041.0713119524905" color-interpolation-filters="sRGB" id="s-Path_4-d1224_effects">
        <feOffset dx="7.071067811865475" dy="7.0710678118654755" input="SourceAlpha"></feOffset>
        <feGaussianBlur result="DROP_SHADOW_0_blur" stdDeviation="5"></feGaussianBlur>
        <feFlood flood-color="#A6B6A6" flood-opacity="1.0"></feFlood>
        <feComposite operator="in" in2="DROP_SHADOW_0_blur"></feComposite>
        <feComposite in="SourceGraphic" result="DROP_SHADOW_0"></feComposite>
      </filter>
      <path id="s-Path_1-d1224" d="M208.32702636718545 523.5305805642065 C208.32702636718545 247.3914928118487 432.2014033529226 23.54412841796892 708.3405742209477 23.54412841796892 C984.4797450889728 23.54412841796892 1208.3270263671852 247.3914928118487 1208.3270263671852 523.5305805642065 C1208.3270263671852 799.6697514322316 984.4797450889728 1023.5442530914697 708.3405742209477 1023.5442530914697 C432.2014033529226 1023.5442530914697 208.32702636718545 799.6697514322316 208.32702636718545 523.5305805642065 "></path>
      <path id="s-Path_2-d1224" d="M628.9920043945295 488.07647623640446 C628.8943476676924 495.40069498640446 628.4548945426924 506.09405436140446 627.6736450195295 520.1565543614045 L661.4611816406233 519.1311637364045 L670.5317687988264 518.9846793614045 L680.0395202636702 518.8381949864045 L690.2774047851545 518.8381949864045 L688.2334899902327 581.5335074864045 L685.0245666503889 645.2542106114045 L681.8133544921858 688.0276481114045 C695.3067016601545 687.8323356263056 703.2756042480452 687.7346793614045 705.7200622558577 687.7346793614045 L728.0154418945295 688.0276481114045 C728.015434265135 680.3265377483979 728.0634994506819 672.9176322422638 728.1596374511702 665.8009330235138 L728.4503173828108 648.5455314121857 L732.6594543457014 545.599059244217 L734.4012451171858 518.8381949864045 L745.6805419921858 518.8381949864045 C761.8914794921858 518.8381949864045 778.8348388671858 519.2776481114045 796.5106201171858 520.1565543614045 C796.5106201171858 512.6660148106232 796.9989013671858 501.9726554356232 797.9754638671858 488.07647623640446 L797.9754638671858 488.07647623640446 L769.8596191406233 488.22524942976383 L717.2900390624983 488.37173380476383 C717.2876586914045 488.37173380476383 717.2852706909163 488.37173380476383 717.2828903198225 488.37173380476383 C686.5344390869124 488.37173380476383 657.1041412353499 488.2733146153107 628.9920043945295 488.07647623640446 Z "></path>
      <filter color-interpolation-filters="sRGB" id="s-Path_2-d1224_effects">
        <feFlood flood-opacity="0" result="INNER_SHADOW_0_BackgroundImageFix"></feFlood>
        <feBlend mode="normal" in="SourceGraphic" in2="INNER_SHADOW_0_BackgroundImageFix" result="INNER_SHADOW_0_shape"></feBlend>
        <feColorMatrix in="SourceAlpha" type="matrix" values="0 0 0 0 0 0 0 0 0 0 0 0 0 0 0 0 0 0 127 0" result="INNER_SHADOW_0_hardAlpha"></feColorMatrix>
        <feOffset dx="-0.0" dy="-0.0"></feOffset>
        <feGaussianBlur stdDeviation="3"></feGaussianBlur>
        <feComposite in2="INNER_SHADOW_0_hardAlpha" operator="arithmetic" k2="-1" k3="1"></feComposite>
        <feColorMatrix type="matrix" values="0 0 0 0 0.22745098039215686 0 0 0 0 0.3803921568627451 0 0 0 0 0.22745098039215686 0 0 0 1.0 0"></feColorMatrix>
        <feBlend mode="normal" in2="INNER_SHADOW_0_shape" result="INNER_SHADOW_0"></feBlend>
      </filter>
      <path id="s-Union_1-d1224" d="M703.4927978515625 215.8799285888672 C729.5297241210938 215.96163940429688 747.9952392578125 224.0232696533203 762.811279296875 236.76947021484375 C777.5729370117188 249.54286193847656 788.4398193359375 267.6815185546875 796.0929565429688 287.6723327636719 C803.87841796875 307.8513488769531 808.259765625 329.7185363769531 810.6826171875 348.8704833984375 L602.9047241210938 348.8704833984375 C603.9603271484375 340.6341247558594 605.3613891601562 331.89447021484375 607.2157592773438 322.99658203125 C613.7522583007812 291.1856384277344 626.4439086914062 257.7406311035156 647.55126953125 237.69546508789062 C661.6864013671875 224.29563903808594 678.9264526367188 215.9888916015625 703.4927978515625 215.8799285888672 Z M887.1950073242188 376.1057434082031 L912.0336303710938 765.3804931640625 L501.3018493652344 765.3804931640625 L528.396484375 376.1057434082031 L573.1256713867188 376.1057434082031 C572.666259765625 384.76019287109375 572.559814453125 391.7901611328125 572.5452270507812 396.5319519042969 C572.5452270507812 400.698974609375 572.6270141601562 403.0956726074219 572.6270141601562 403.23187255859375 C572.8926391601562 410.5650329589844 578.9125366210938 416.343017578125 586.1857299804688 416.343017578125 C586.3680419921875 416.343017578125 586.5510864257812 416.3393859863281 586.73486328125 416.3320617675781 C594.251708984375 416.0869445800781 600.1073608398438 409.7683410644531 599.8350830078125 402.25140380859375 C599.8350830078125 402.2241516113281 599.780517578125 400.3449401855469 599.780517578125 396.5319519042969 C599.7702026367188 391.9757080078125 599.884765625 384.8834533691406 600.3899536132812 376.1057434082031 L813.0859985351562 376.1057434082031 C813.4358520507812 382.99053955078125 813.5360107421875 388.8309326171875 813.5234375 393.2092590332031 C813.5234375 396.09619140625 813.4691162109375 398.3567199707031 813.41455078125 399.88189697265625 L813.3600463867188 402.06072998046875 C812.9788818359375 409.5504455566406 818.7527465820312 415.9507751464844 826.2695922851562 416.3320617675781 C826.5042114257812 416.343994140625 826.73779296875 416.34991455078125 826.9701538085938 416.34991455078125 C834.156005859375 416.34991455078125 840.1980590820312 410.7039794921875 840.541015625 403.4224853515625 C840.568115234375 403.2318420410156 840.7587890625 399.5278625488281 840.7587890625 393.2092590332031 C840.7509155273438 388.714599609375 840.6572265625 382.9073791503906 840.341064453125 376.1057434082031 Z M703.0634765625 188.6438446044922 C672.0759887695312 188.6438446044922 646.9226684570312 200.38287353515625 628.7044677734375 218.05873107910156 C610.2933349609375 235.76170349121094 598.3369750976562 258.8028564453125 590.1392822265625 282.27972412109375 C582.2342529296875 305.1842346191406 577.8678588867188 328.7173767089844 575.4624633789062 348.8704833984375 L515.6776123046875 348.8704833984375 C508.5419921875 348.8704833984375 502.5774230957031 354.3992614746094 502.08721923828125 361.534912109375 L473.1087646484375 778.0449829101562 C472.83648681640625 781.8306274414062 474.14373779296875 785.5074462890625 476.7311096191406 788.285400390625 C479.3185119628906 791.0634765625 482.9136047363281 792.6159057617188 486.6991882324219 792.6159057617188 L926.5499267578125 792.6159057617188 C930.2811889648438 792.6159057617188 933.9035034179688 791.0361938476562 936.4636840820312 788.3126831054688 C939.0238037109375 785.589111328125 940.3582763671875 781.85791015625 940.1405029296875 778.1266479492188 L913.558837890625 361.6166076660156 C913.095703125 354.4264221191406 907.1583862304688 348.8704833984375 899.9683837890625 348.8704833984375 L838.123779296875 348.8704833984375 C836.7904663085938 337.4938049316406 834.8026733398438 325.0445861816406 831.8529663085938 312.23858642578125 C823.9818725585938 278.38507080078125 809.6015625 241.50839233398438 780.6776123046875 216.2067413330078 C761.4945068359375 199.43849182128906 735.6347045898438 188.64413452148438 703.852294921875 188.64413452148438 C703.7325439453125 188.64413452148438 703.6127319335938 188.644287109375 703.4927978515625 188.64459228515625 C703.3495483398438 188.6440887451172 703.2064208984375 188.6438446044922 703.0634765625 188.6438446044922 Z "></path>
      <filter color-interpolation-filters="sRGB" id="s-Union_1-d1224_effects">
        <feFlood flood-opacity="0" result="INNER_SHADOW_0_BackgroundImageFix"></feFlood>
        <feBlend mode="normal" in="SourceGraphic" in2="INNER_SHADOW_0_BackgroundImageFix" result="INNER_SHADOW_0_shape"></feBlend>
        <feColorMatrix in="SourceAlpha" type="matrix" values="0 0 0 0 0 0 0 0 0 0 0 0 0 0 0 0 0 0 127 0" result="INNER_SHADOW_0_hardAlpha"></feColorMatrix>
        <feOffset dx="-0.0" dy="-0.0"></feOffset>
        <feGaussianBlur stdDeviation="3"></feGaussianBlur>
        <feComposite in2="INNER_SHADOW_0_hardAlpha" operator="arithmetic" k2="-1" k3="1"></feComposite>
        <feColorMatrix type="matrix" values="0 0 0 0 0.22745098039215686 0 0 0 0 0.3803921568627451 0 0 0 0 0.22745098039215686 0 0 0 1.0 0"></feColorMatrix>
        <feBlend mode="normal" in2="INNER_SHADOW_0_shape" result="INNER_SHADOW_0"></feBlend>
      </filter>
    </defs>
    <g style="mix-blend-mode:normal" filter="url(#s-Path_4-d1224_effects)">
      <use xmlns:xlink="http://www.w3.org/1999/xlink" xlink:href="#s-Path_4-d1224" fill="#FFFFFF" fill-opacity="0.01"></use>
    </g>
    <g style="mix-blend-mode:normal">
      <use xmlns:xlink="http://www.w3.org/1999/xlink" xlink:href="#s-Path_1-d1224" fill="#449C45" fill-opacity="1.0"></use>
    </g>
    <g style="mix-blend-mode:normal" filter="url(#s-Path_2-d1224_effects)">
      <use xmlns:xlink="http://www.w3.org/1999/xlink" xlink:href="#s-Path_2-d1224" fill="#FFFFFF" fill-opacity="1.0"></use>
    </g>
    <g style="mix-blend-mode:normal" filter="url(#s-Union_1-d1224_effects)">
      <use xmlns:xlink="http://www.w3.org/1999/xlink" xlink:href="#s-Union_1-d1224" fill="#FFFFFF" fill-opacity="1.0"></use>
    </g>
  </g>
</svg>
