<svg width="136" height="116" viewBox="0 0 136 116" fill="none" xmlns="http://www.w3.org/2000/svg">
<g clip-path="url(#clip0_1_4)">
<rect width="136" height="116" fill="white"/>
<path d="M0 58V116H68H136V58V-7.62939e-06H68H0V58ZM81.0667 24.6667C90.9333 28.8 100.4 40.1333 102 49.6C102.533 52.5333 102.533 55.2 102.133 55.6C101.733 56 93.6 52.9333 84.1333 48.6667L66.8 40.9333L49.3333 48.6667C39.7333 52.9333 31.6 56 31.2 55.6C29.6 54 32.2667 44.2667 35.7333 38.9333C41.7333 30 48.9333 25.0667 60.6667 22.1333C64.6667 21.2 75.8667 22.5333 81.0667 24.6667ZM54.5333 70.9333C56 73.3333 59.3333 77.4667 61.8667 79.8667L66.6667 84.5333L71.4667 79.8667C74 77.4667 77.3333 73.3333 78.8 70.9333C80.4 68.6667 82.2667 66.6667 83.3333 66.6667C84.2667 66.6667 88.4 68.2667 92.5333 70.1333L100 73.6L96.4 80.4C92.4 87.8667 69.8667 112 66.8 112C61.8667 112 34.6667 80.5333 34.6667 74.9333C34.6667 73.3333 46.9333 67.0667 50.2667 66.8C51.0667 66.6667 52.9333 68.6667 54.5333 70.9333Z" fill="#236C5C"/>
</g>
<defs>
<clipPath id="clip0_1_4">
<rect width="136" height="116" fill="white"/>
</clipPath>
</defs>
</svg>
